<?xml version="1.0" standalone="no"?>
<!DOCTYPE svg PUBLIC "-//W3C//DTD SVG 20010904//EN"
 "http://www.w3.org/TR/2001/REC-SVG-20010904/DTD/svg10.dtd">
<svg version="1.0" xmlns="http://www.w3.org/2000/svg"
 width="336.000000pt" height="280.000000pt" viewBox="0 0 336.000000 280.000000"
 preserveAspectRatio="xMidYMid meet">

<g transform="translate(0.000000,280.000000) scale(0.100000,-0.100000)"
fill="#000000" stroke="none">
<path d="M440 2580 c0 -83 1 -90 20 -90 15 0 20 7 20 25 0 14 4 25 9 25 5 0
16 -11 25 -25 9 -14 26 -25 37 -25 21 0 20 1 -5 35 l-27 35 21 30 c21 30 21
30 1 30 -11 0 -29 -12 -40 -26 l-21 -27 0 52 c0 44 -3 51 -20 51 -19 0 -20 -7
-20 -90z"/>
<path d="M790 2581 l0 -89 52 2 c45 1 54 4 65 26 25 48 -3 104 -49 98 -25 -4
-28 -2 -28 24 0 21 -5 28 -20 28 -18 0 -20 -7 -20 -89z m85 -26 c0 -23 -4 -30
-20 -30 -21 0 -31 25 -21 51 11 28 41 12 41 -21z"/>
<path d="M1307 2664 c-9 -10 2 -24 19 -24 8 0 14 7 14 15 0 15 -21 21 -33 9z"/>
<path d="M70 2576 c0 -81 1 -86 21 -86 21 0 21 4 16 62 -6 69 5 62 24 -14 16
-69 41 -66 67 10 l20 57 1 -57 c1 -51 3 -58 21 -58 18 0 20 7 20 85 l0 85 -28
0 c-26 0 -30 -5 -48 -62 l-20 -63 -20 60 c-18 51 -24 60 -47 63 l-27 3 0 -85z"/>
<path d="M1150 2575 c0 -69 3 -85 15 -85 10 0 15 10 15 29 0 44 17 47 41 7 13
-22 29 -36 41 -36 18 0 17 3 -8 48 l-27 49 28 36 c26 35 26 37 7 37 -11 0 -34
-17 -51 -37 l-30 -38 -1 38 c0 26 -4 37 -15 37 -12 0 -15 -16 -15 -85z"/>
<path d="M305 2611 c-7 -12 -3 -13 34 -15 36 -2 39 -26 3 -26 -35 0 -55 -20
-50 -52 3 -21 9 -23 56 -24 l53 -1 -3 61 -3 61 -42 3 c-22 2 -44 -2 -48 -7z
m65 -70 c0 -14 -28 -33 -39 -27 -16 10 -1 36 20 36 10 0 19 -4 19 -9z"/>
<path d="M596 2598 c-20 -29 -20 -58 0 -86 13 -19 24 -22 57 -20 24 2 42 9 45
17 4 11 -2 13 -25 8 -28 -6 -53 6 -53 25 0 4 18 8 40 8 35 0 40 3 40 23 0 32
-18 47 -56 47 -23 0 -38 -7 -48 -22z m72 -15 c2 -8 -6 -13 -22 -13 -25 0 -33
10 -19 24 10 10 36 3 41 -11z"/>
<path d="M930 2615 c0 -3 11 -33 25 -67 25 -62 22 -88 -11 -88 -18 0 -18 -19
0 -26 30 -11 55 17 85 97 17 44 31 83 31 85 0 2 -8 4 -18 4 -13 0 -23 -13 -32
-42 l-13 -43 -13 30 c-7 17 -13 36 -14 43 0 11 -40 18 -40 7z"/>
<path d="M1300 2555 c0 -58 2 -65 20 -65 18 0 20 7 20 65 0 58 -2 65 -20 65
-18 0 -20 -7 -20 -65z"/>
<path d="M1380 2553 c0 -48 3 -63 14 -63 10 0 16 14 18 43 2 32 8 44 26 52 36
16 26 33 -18 31 l-40 -1 0 -62z"/>
<path d="M1496 2604 c-22 -21 -20 -77 2 -97 23 -21 66 -22 86 -1 9 8 16 31 16
49 0 41 -22 65 -60 65 -16 0 -36 -7 -44 -16z m69 -25 c12 -19 -4 -59 -24 -59
-22 0 -34 25 -26 51 7 20 40 26 50 8z"/>
</g>
</svg>
